<?xml version="1.0" encoding="UTF-8"?>
<!DOCTYPE svg PUBLIC "-//W3C//DTD SVG 1.1//EN" "http://www.w3.org/Graphics/SVG/1.1/DTD/svg11.dtd">
<svg xmlns="http://www.w3.org/2000/svg" version="1.1" width="15px" height="14px" style="shape-rendering:geometricPrecision; text-rendering:geometricPrecision; image-rendering:optimizeQuality; fill-rule:evenodd; clip-rule:evenodd" xmlns:xlink="http://www.w3.org/1999/xlink">
<g><path style="opacity:1" fill="#f3f8ee" d="M -0.5,-0.5 C 1.16667,-0.5 2.83333,-0.5 4.5,-0.5C -0.833333,4.16667 -0.833333,8.83333 4.5,13.5C 2.83333,13.5 1.16667,13.5 -0.5,13.5C -0.5,8.83333 -0.5,4.16667 -0.5,-0.5 Z"/></g>
<g><path style="opacity:1" fill="#95c75c" d="M 4.5,-0.5 C 6.16667,-0.5 7.83333,-0.5 9.5,-0.5C 13.3153,2.10738 14.482,5.77404 13,10.5C 11.8549,11.6364 10.6883,12.6364 9.5,13.5C 7.83333,13.5 6.16667,13.5 4.5,13.5C -0.833333,8.83333 -0.833333,4.16667 4.5,-0.5 Z"/></g>
<g><path style="opacity:1" fill="#f2f8ed" d="M 9.5,-0.5 C 11.1667,-0.5 12.8333,-0.5 14.5,-0.5C 14.5,4.16667 14.5,8.83333 14.5,13.5C 12.8333,13.5 11.1667,13.5 9.5,13.5C 10.6883,12.6364 11.8549,11.6364 13,10.5C 14.482,5.77404 13.3153,2.10738 9.5,-0.5 Z"/></g>
<g><path style="opacity:1" fill="#f6faf3" d="M 5.5,2.5 C 6.91179,4.2303 6.57845,5.7303 4.5,7C 5.79323,7.49001 7.12656,7.65668 8.5,7.5C 8.5,5.83333 8.5,4.16667 8.5,2.5C 10.7224,2.55867 11.7224,3.72533 11.5,6C 8.82463,13.063 5.82463,13.2296 2.5,6.5C 2.75384,4.5828 3.75384,3.24947 5.5,2.5 Z"/></g>
<g><path style="opacity:1" fill="#c5dfa9" d="M 5.5,2.5 C 6.5,1.16667 7.5,1.16667 8.5,2.5C 8.5,4.16667 8.5,5.83333 8.5,7.5C 7.12656,7.65668 5.79323,7.49001 4.5,7C 6.57845,5.7303 6.91179,4.2303 5.5,2.5 Z"/></g>
</svg>
