<?xml version="1.0" encoding="UTF-8"?>
<!DOCTYPE svg PUBLIC "-//W3C//DTD SVG 1.1//EN" "http://www.w3.org/Graphics/SVG/1.1/DTD/svg11.dtd">
<svg xmlns="http://www.w3.org/2000/svg" version="1.1" width="36px" height="43px" style="shape-rendering:geometricPrecision; text-rendering:geometricPrecision; image-rendering:optimizeQuality; fill-rule:evenodd; clip-rule:evenodd" xmlns:xlink="http://www.w3.org/1999/xlink">
<g><path style="opacity:1" fill="#fefffe" d="M -0.5,-0.5 C 4.83333,-0.5 10.1667,-0.5 15.5,-0.5C 10.838,3.00417 5.50466,4.67084 -0.5,4.5C -0.5,2.83333 -0.5,1.16667 -0.5,-0.5 Z"/></g>
<g><path style="opacity:1" fill="#7cb243" d="M 15.5,-0.5 C 16.5,-0.5 17.5,-0.5 18.5,-0.5C 17.612,2.05449 17.2786,4.72116 17.5,7.5C 5.33487,10.8565 2.16821,18.1898 8,29.5C 8.39877,29.2716 8.56544,28.9382 8.5,28.5C 11.2391,32.0094 14.9057,33.3428 19.5,32.5C 17.727,35.4882 17.0604,38.8215 17.5,42.5C 16.1667,42.5 14.8333,42.5 13.5,42.5C 7.19201,39.5254 2.52535,34.8587 -0.5,28.5C -0.5,20.5 -0.5,12.5 -0.5,4.5C 5.50466,4.67084 10.838,3.00417 15.5,-0.5 Z"/></g>
<g><path style="opacity:1" fill="#fefffe" d="M 19.5,-0.5 C 24.8333,-0.5 30.1667,-0.5 35.5,-0.5C 35.5,1.16667 35.5,2.83333 35.5,4.5C 29.4953,4.67084 24.162,3.00417 19.5,-0.5 Z"/></g>
<g><path style="opacity:1" fill="#689e31" d="M 18.5,-0.5 C 18.8333,-0.5 19.1667,-0.5 19.5,-0.5C 24.162,3.00417 29.4953,4.67084 35.5,4.5C 35.5,12.5 35.5,20.5 35.5,28.5C 32.4747,34.8587 27.808,39.5254 21.5,42.5C 20.1667,42.5 18.8333,42.5 17.5,42.5C 17.0604,38.8215 17.727,35.4882 19.5,32.5C 22.4001,31.5568 24.7334,29.8901 26.5,27.5C 30.2243,20.2572 28.8909,14.0906 22.5,9C 20.8659,8.50649 19.1992,8.33982 17.5,8.5C 17.5,10.5 17.5,12.5 17.5,14.5C 12.7404,15.9436 11.4071,18.9436 13.5,23.5C 11.4301,24.9029 9.76347,26.5696 8.5,28.5C 8.56544,28.9382 8.39877,29.2716 8,29.5C 2.16821,18.1898 5.33487,10.8565 17.5,7.5C 17.2786,4.72116 17.612,2.05449 18.5,-0.5 Z"/></g>
<g><path style="opacity:1" fill="#5d8e2d" d="M 26.5,27.5 C 24.8767,26.2206 23.21,24.8872 21.5,23.5C 23.0396,19.3362 21.7063,16.3362 17.5,14.5C 17.5,12.5 17.5,10.5 17.5,8.5C 19.1992,8.33982 20.8659,8.50649 22.5,9C 28.8909,14.0906 30.2243,20.2572 26.5,27.5 Z"/></g>
<g><path style="opacity:1" fill="#cfdee6" d="M 17.5,14.5 C 21.7063,16.3362 23.0396,19.3362 21.5,23.5C 23.21,24.8872 24.8767,26.2206 26.5,27.5C 24.7334,29.8901 22.4001,31.5568 19.5,32.5C 14.9057,33.3428 11.2391,32.0094 8.5,28.5C 9.76347,26.5696 11.4301,24.9029 13.5,23.5C 11.4071,18.9436 12.7404,15.9436 17.5,14.5 Z"/></g>
<g><path style="opacity:1" fill="#fefffe" d="M -0.5,28.5 C 2.52535,34.8587 7.19201,39.5254 13.5,42.5C 8.83333,42.5 4.16667,42.5 -0.5,42.5C -0.5,37.8333 -0.5,33.1667 -0.5,28.5 Z"/></g>
<g><path style="opacity:1" fill="#fefffe" d="M 35.5,28.5 C 35.5,33.1667 35.5,37.8333 35.5,42.5C 30.8333,42.5 26.1667,42.5 21.5,42.5C 27.808,39.5254 32.4747,34.8587 35.5,28.5 Z"/></g>
</svg>
